<svg class="border shadow-md" viewBox="0 0 775.28 775.28" style="width: 775.28px; height: 775.28px;" xmlns="http://www.w3.org/2000/svg" preserveAspectRatio="none"><rect class="bg" id="bg" x="0" y="0" width="775.28" height="775.28" fill="#ffffff"></rect><g transform="rotate(0 387.64 387.64)"><path d="M -487.64 -47.53 S -253.82 -112.53 0.00 -47.53 188.64 -100.53 487.64 -47.53 681.28 -88.53 975.28 -47.53 1174.92 -114.53 1462.92 -47.53 h 110 V 975.28 H -487.64 Z" fill="#000000" id="-1"></path><path d="M -487.64 30.00 S -331.00 -20.00 0.00 30.00 233.82 -11.00 487.64 30.00 721.46 -8.76 975.28 30.00 1209.10 -30.00 1462.92 30.00 h 110 V 975.28 H -487.64 Z" fill="#020202" id="0"></path><path id="1" d="M -487.64 107.53 S -414.00 68.76 0.00 107.53 233.82 68.76 487.64 107.53 719.28 36.53 975.28 107.53 1209.10 41.53 1462.92 107.53 h 110 V 975.28 H -487.64 Z" fill="#040404"></path><path id="2" d="M -487.64 185.06 S -253.82 146.29 0.00 185.06 233.82 109.06 487.64 185.06 509.28 123.06 975.28 185.06 1209.10 146.29 1462.92 185.06 h 110 V 975.28 H -487.64 Z" fill="#060606"></path><path id="3" d="M -487.64 262.58 S -253.82 223.82 0.00 262.58 233.82 218.58 487.64 262.58 582.28 223.82 975.28 262.58 1086.92 213.58 1462.92 262.58 h 110 V 975.28 H -487.64 Z" fill="#080808"></path><path id="4" d="M -487.64 340.11 S -321.00 301.35 0.00 340.11 233.82 293.11 487.64 340.11 586.28 301.35 975.28 340.11 1209.10 301.35 1462.92 340.11 h 110 V 975.28 H -487.64 Z" fill="#0a0a0a"></path><path id="5" d="M -487.64 417.64 S -405.00 378.88 0.00 417.64 233.82 378.88 487.64 417.64 721.46 378.88 975.28 417.64 1209.10 378.88 1462.92 417.64 h 110 V 975.28 H -487.64 Z" fill="#0c0c0c"></path><path id="6" d="M -487.64 495.17 S -296.00 456.40 0.00 495.17 233.82 456.40 487.64 495.17 530.28 456.40 975.28 495.17 1120.92 456.40 1462.92 495.17 h 110 V 975.28 H -487.64 Z" fill="#0e0e0e"></path><path id="7" d="M -487.64 572.70 S -253.82 502.70 0.00 572.70 17.64 533.93 487.64 572.70 721.46 498.70 975.28 572.70 1209.10 500.70 1462.92 572.70 h 110 V 975.28 H -487.64 Z" fill="#101010"></path><path id="8" d="M -487.64 650.22 S -275.00 576.22 0.00 650.22 196.64 611.46 487.64 650.22 721.46 611.46 975.28 650.22 1209.10 611.46 1462.92 650.22 h 110 V 975.28 H -487.64 Z" fill="#121212"></path><path id="9" d="M -487.64 727.75 S -298.00 674.75 0.00 727.75 21.64 670.75 487.64 727.75 668.28 653.75 975.28 727.75 992.92 688.99 1462.92 727.75 h 110 V 975.28 H -487.64 Z" fill="#141414"></path></g></svg>